<?xml version="1.0" standalone="no"?>
<!DOCTYPE svg PUBLIC "-//W3C//DTD SVG 20010904//EN"
 "http://www.w3.org/TR/2001/REC-SVG-20010904/DTD/svg10.dtd">
<svg version="1.0" xmlns="http://www.w3.org/2000/svg"
 width="500.000000pt" height="500.000000pt" viewBox="0 0 500.000000 500.000000"
 preserveAspectRatio="xMidYMid meet">

<g transform="translate(0.000000,500.000000) scale(0.100000,-0.100000)"
fill="#000000" stroke="none">
<path d="M2813 4880 c-177 -8 -183 -9 -353 -46 -222 -49 -332 -95 -561 -237
-202 -125 -348 -236 -503 -382 -109 -103 -225 -229 -281 -306 -41 -58 -175
-259 -175 -264 0 -3 -43 -92 -95 -199 -52 -107 -95 -199 -95 -205 0 -6 -13
-39 -30 -73 -74 -157 -141 -402 -161 -589 -7 -63 -9 -202 -6 -359 l5 -255 41
-157 c41 -156 93 -295 131 -348 11 -15 20 -31 20 -36 0 -13 62 -107 117 -176
l53 -66 -28 -29 c-15 -15 -49 -45 -75 -67 -57 -45 -70 -73 -56 -115 15 -42 64
-64 111 -49 50 15 116 -17 146 -71 43 -76 101 -306 127 -504 15 -116 31 -153
70 -163 37 -9 92 4 101 24 4 9 8 55 9 102 1 89 31 203 68 267 l19 33 51 -44
c29 -24 90 -67 137 -96 47 -29 92 -58 100 -65 20 -17 157 -86 245 -123 244
-104 367 -147 510 -178 124 -28 142 -29 380 -29 281 0 336 8 585 87 115 37
171 58 290 111 25 11 61 25 81 32 105 38 262 138 399 256 52 45 115 96 140
115 25 18 86 77 135 131 50 54 103 110 118 125 16 15 39 42 51 60 12 18 42 62
67 98 67 96 99 171 99 231 0 66 -9 69 -190 57 -376 -25 -890 46 -1130 155 -30
14 -63 27 -72 30 -51 17 -165 107 -245 194 -240 261 -272 300 -288 357 -9 30
-25 66 -36 80 -24 31 -113 217 -127 266 -5 19 -19 58 -30 85 -11 28 -23 75
-26 105 -4 30 -19 115 -33 188 -21 111 -24 153 -20 245 7 161 31 313 71 465
39 146 59 199 117 312 21 41 64 127 95 190 64 129 174 267 272 342 137 104
346 215 547 288 105 38 113 109 16 141 -142 49 -562 76 -908 59z m372 -129
c226 -10 247 -15 178 -44 -26 -12 -72 -36 -101 -54 -29 -18 -55 -33 -58 -33
-3 0 -38 -19 -77 -42 -90 -54 -254 -214 -326 -318 -22 -33 -104 -187 -192
-364 -74 -147 -135 -373 -170 -631 -24 -182 -22 -292 11 -454 10 -53 27 -141
36 -196 9 -55 22 -111 29 -125 7 -14 16 -47 20 -75 19 -134 70 -270 131 -352
13 -17 24 -34 24 -37 0 -13 99 -135 175 -215 45 -47 106 -113 136 -146 88 -97
138 -143 198 -184 193 -131 475 -216 796 -240 161 -13 527 -14 597 -2 l47 8
-15 -36 c-8 -19 -34 -59 -57 -88 -23 -29 -52 -68 -65 -86 -104 -145 -516 -464
-717 -555 -279 -125 -389 -165 -520 -185 -294 -47 -423 -54 -659 -38 -157 10
-216 26 -446 114 -162 62 -375 164 -420 202 -8 7 -37 25 -65 40 -27 16 -75 50
-105 75 -30 26 -61 49 -69 52 -11 3 -7 12 15 35 19 21 58 42 115 62 47 17 90
31 96 31 19 0 44 37 50 73 5 32 1 40 -29 69 -19 18 -67 53 -107 78 -72 44
-110 88 -159 185 -37 75 -112 375 -112 453 0 62 -73 98 -104 50 -8 -13 -21
-60 -30 -106 -27 -134 -82 -248 -163 -335 l-37 -40 -33 39 c-18 21 -46 67 -63
101 -16 34 -34 64 -39 67 -5 4 -17 30 -27 59 -9 28 -20 54 -24 57 -4 3 -19 37
-34 75 -15 39 -31 81 -37 94 -10 24 -41 163 -61 271 -6 32 -8 151 -5 285 4
187 10 255 30 367 27 146 73 301 113 380 13 26 24 52 24 58 0 33 193 411 268
525 191 290 415 512 745 736 228 156 798 344 1052 347 28 1 136 -3 240 -7z
m-1864 -3564 c18 -34 39 -74 46 -89 8 -16 37 -53 64 -82 l50 -55 -38 -25 c-43
-29 -102 -101 -149 -183 -29 -52 -44 -59 -44 -22 0 10 -17 64 -37 120 -36 102
-75 157 -140 199 -23 15 -23 15 33 75 31 33 64 71 73 85 9 14 32 47 51 73 l35
49 12 -41 c6 -23 26 -69 44 -104z"/>
<path d="M426 4048 c-3 -7 -14 -58 -26 -113 -12 -55 -31 -113 -42 -128 -11
-16 -32 -47 -48 -70 -16 -23 -51 -67 -79 -97 -65 -69 -64 -86 5 -82 47 3 54 1
83 -30 49 -52 111 -180 117 -240 9 -90 13 -100 36 -96 19 3 21 10 23 88 2 47
8 99 14 115 24 60 136 150 204 164 49 10 47 38 -5 61 -25 11 -75 52 -119 97
-73 74 -77 82 -108 176 -17 54 -31 114 -31 132 0 34 -16 48 -24 23z"/>
<path d="M3237 3700 c-14 -16 -33 -51 -43 -77 -27 -73 -87 -155 -143 -198 -28
-22 -54 -47 -57 -57 -8 -26 4 -56 26 -63 37 -12 95 -67 118 -113 13 -26 32
-78 42 -117 13 -54 23 -73 43 -84 22 -13 28 -13 50 2 21 13 27 28 33 74 14
120 90 203 183 203 16 0 34 7 41 15 27 33 14 62 -61 137 -66 65 -79 84 -113
168 -62 153 -74 164 -119 110z m101 -333 c24 -26 25 -29 10 -38 -9 -5 -35 -28
-56 -51 -39 -41 -40 -41 -52 -19 -6 13 -28 40 -47 62 l-35 39 53 58 54 58 23
-40 c13 -23 35 -54 50 -69z"/>
<path d="M3540 2949 c-39 -94 -84 -159 -171 -246 -75 -75 -74 -93 5 -90 46 2
59 -2 81 -23 35 -32 54 -76 75 -170 14 -63 20 -76 38 -78 23 -4 27 6 36 95 9
90 59 163 112 163 58 0 52 27 -20 95 -76 70 -88 101 -91 227 -4 136 -17 142
-65 27z"/>
</g>
</svg>
